HIERARCHY
ROOT Hips
{
	OFFSET 0.000000 100.481300 0.000000
	CHANNELS 6 Xposition Yposition Zposition Xrotation Yrotation Zrotation
	JOINT Spine
	{
		OFFSET -0.279200 12.230698 -2.892100
		CHANNELS 3 Xrotation Yrotation Zrotation
		JOINT Spine1
		{
			OFFSET -0.325700 14.269203 -3.374200
			CHANNELS 3 Xrotation Yrotation Zrotation
			JOINT Spine2
			{
				OFFSET -0.372300 16.307602 -0.352600
				CHANNELS 3 Xrotation Yrotation Zrotation
				JOINT Neck
				{
					OFFSET -0.418800 17.814194 8.416900
					CHANNELS 3 Xrotation Yrotation Zrotation
					JOINT Head
					{
						OFFSET 0.000000 7.031097 3.806800
						CHANNELS 3 Xrotation Yrotation Zrotation
						JOINT HeadTop_End
						{
							OFFSET 0.000000 24.646606 12.978600
							CHANNELS 3 Xrotation Yrotation Zrotation
							End Site
							{
								OFFSET 0.000000 27.854965 0.000000
							}
						}
					}
				}
				JOINT LeftShoulder
				{
					OFFSET 16.952999 14.495407 -7.737500
					CHANNELS 3 Xrotation Yrotation Zrotation
					JOINT LeftArm
					{
						OFFSET 9.308998 -2.777710 0.208600
						CHANNELS 3 Xrotation Yrotation Zrotation
						JOINT LeftForeArm
						{
							OFFSET 29.972298 0.000000 0.000000
							CHANNELS 3 Xrotation Yrotation Zrotation
							JOINT LeftHand
							{
								OFFSET 26.026505 0.000000 0.000000
								CHANNELS 3 Xrotation Yrotation Zrotation
								JOINT LeftHandThumb1
								{
									OFFSET 12.240501 -7.147949 9.207150
									CHANNELS 3 Xrotation Yrotation Zrotation
									JOINT LeftHandThumb2
									{
										OFFSET 4.138618 -2.389435 2.389433
										CHANNELS 3 Xrotation Yrotation Zrotation
										JOINT LeftHandThumb3
										{
											OFFSET 2.726913 -1.574387 1.574386
											CHANNELS 3 Xrotation Yrotation Zrotation
											JOINT LeftHandThumb4
											{
												OFFSET 3.941010 -2.275345 2.275342
												CHANNELS 3 Xrotation Yrotation Zrotation
												End Site
												{
													OFFSET -0.005798 5.087799 0.009903
												}
											}
										}
									}
								}
								JOINT LeftHandIndex1
								{
									OFFSET 24.424698 -1.985611 5.953459
									CHANNELS 3 Xrotation Yrotation Zrotation
									JOINT LeftHandIndex2
									{
										OFFSET 6.426697 0.000000 0.000000
										CHANNELS 3 Xrotation Yrotation Zrotation
										JOINT LeftHandIndex3
										{
											OFFSET 5.337898 0.000000 0.000000
											CHANNELS 3 Xrotation Yrotation Zrotation
											JOINT LeftHandIndex4
											{
												OFFSET 4.409401 0.000000 0.000000
												CHANNELS 3 Xrotation Yrotation Zrotation
												End Site
												{
													OFFSET 0.000000 4.409363 0.014373
												}
											}
										}
									}
								}
								JOINT LeftHandMiddle1
								{
									OFFSET 23.810104 0.000000 0.000000
									CHANNELS 3 Xrotation Yrotation Zrotation
									JOINT LeftHandMiddle2
									{
										OFFSET 7.176498 0.000000 0.000000
										CHANNELS 3 Xrotation Yrotation Zrotation
										JOINT LeftHandMiddle3
										{
											OFFSET 6.774902 0.000000 0.000000
											CHANNELS 3 Xrotation Yrotation Zrotation
											JOINT LeftHandMiddle4
											{
												OFFSET 5.403328 0.000000 0.000000
												CHANNELS 3 Xrotation Yrotation Zrotation
												End Site
												{
													OFFSET -0.027702 5.403244 0.017414
												}
											}
										}
									}
								}
								JOINT LeftHandRing1
								{
									OFFSET 22.908401 -0.839279 -6.020567
									CHANNELS 3 Xrotation Yrotation Zrotation
									JOINT LeftHandRing2
									{
										OFFSET 6.337502 0.000000 0.000000
										CHANNELS 3 Xrotation Yrotation Zrotation
										JOINT LeftHandRing3
										{
											OFFSET 5.779297 0.000000 0.000000
											CHANNELS 3 Xrotation Yrotation Zrotation
											JOINT LeftHandRing4
											{
												OFFSET 4.965698 0.000000 0.000000
												CHANNELS 3 Xrotation Yrotation Zrotation
												End Site
												{
													OFFSET 0.000000 4.965668 0.016186
												}
											}
										}
									}
								}
								JOINT LeftHandPinky1
								{
									OFFSET 20.037003 -1.530319 -10.950146
									CHANNELS 3 Xrotation Yrotation Zrotation
									JOINT LeftHandPinky2
									{
										OFFSET 5.254700 0.000000 0.000000
										CHANNELS 3 Xrotation Yrotation Zrotation
										JOINT LeftHandPinky3
										{
											OFFSET 4.810204 0.000000 0.000000
											CHANNELS 3 Xrotation Yrotation Zrotation
											JOINT LeftHandPinky4
											{
												OFFSET 3.647202 0.000000 0.000000
												CHANNELS 3 Xrotation Yrotation Zrotation
												End Site
												{
													OFFSET 0.000000 3.647186 0.011889
												}
											}
										}
									}
								}
							}
						}
					}
				}
				JOINT RightShoulder
				{
					OFFSET -15.141001 14.495407 -7.737500
					CHANNELS 3 Xrotation Yrotation Zrotation
					JOINT RightArm
					{
						OFFSET -9.308998 -2.777710 0.208500
						CHANNELS 3 Xrotation Yrotation Zrotation
						JOINT RightForeArm
						{
							OFFSET -29.972300 0.000000 0.000000
							CHANNELS 3 Xrotation Yrotation Zrotation
							JOINT RightHand
							{
								OFFSET -26.026505 0.000000 0.000000
								CHANNELS 3 Xrotation Yrotation Zrotation
								JOINT RightHandThumb1
								{
									OFFSET -12.240601 -7.148026 9.207092
									CHANNELS 3 Xrotation Yrotation Zrotation
									JOINT RightHandThumb2
									{
										OFFSET -4.138618 -2.389435 2.389433
										CHANNELS 3 Xrotation Yrotation Zrotation
										JOINT RightHandThumb3
										{
											OFFSET -2.726974 -1.574417 1.574421
											CHANNELS 3 Xrotation Yrotation Zrotation
											JOINT RightHandThumb4
											{
												OFFSET -3.941010 -2.275345 2.275343
												CHANNELS 3 Xrotation Yrotation Zrotation
												End Site
												{
													OFFSET 0.005814 5.087799 0.009927
												}
											}
										}
									}
								}
								JOINT RightHandIndex1
								{
									OFFSET -24.424698 -1.985657 5.953444
									CHANNELS 3 Xrotation Yrotation Zrotation
									JOINT RightHandIndex2
									{
										OFFSET -6.426697 0.000000 0.000000
										CHANNELS 3 Xrotation Yrotation Zrotation
										JOINT RightHandIndex3
										{
											OFFSET -5.337898 0.000000 0.000000
											CHANNELS 3 Xrotation Yrotation Zrotation
											JOINT RightHandIndex4
											{
												OFFSET -4.409401 0.000000 0.000000
												CHANNELS 3 Xrotation Yrotation Zrotation
												End Site
												{
													OFFSET 0.000000 4.409363 0.014408
												}
											}
										}
									}
								}
								JOINT RightHandMiddle1
								{
									OFFSET -23.810097 0.000000 0.000000
									CHANNELS 3 Xrotation Yrotation Zrotation
									JOINT RightHandMiddle2
									{
										OFFSET -7.176498 0.000000 0.000000
										CHANNELS 3 Xrotation Yrotation Zrotation
										JOINT RightHandMiddle3
										{
											OFFSET -6.774902 0.000000 0.000000
											CHANNELS 3 Xrotation Yrotation Zrotation
											JOINT RightHandMiddle4
											{
												OFFSET -5.403328 0.000000 0.000000
												CHANNELS 3 Xrotation Yrotation Zrotation
												End Site
												{
													OFFSET 0.027702 5.403244 0.017457
												}
											}
										}
									}
								}
								JOINT RightHandRing1
								{
									OFFSET -22.908302 -0.839325 -6.020576
									CHANNELS 3 Xrotation Yrotation Zrotation
									JOINT RightHandRing2
									{
										OFFSET -6.337502 0.000000 0.000000
										CHANNELS 3 Xrotation Yrotation Zrotation
										JOINT RightHandRing3
										{
											OFFSET -5.779297 0.000000 0.000000
											CHANNELS 3 Xrotation Yrotation Zrotation
											JOINT RightHandRing4
											{
												OFFSET -4.965698 0.000000 0.000000
												CHANNELS 3 Xrotation Yrotation Zrotation
												End Site
												{
													OFFSET 0.000000 4.965668 0.016226
												}
											}
										}
									}
								}
								JOINT RightHandPinky1
								{
									OFFSET -20.037003 -1.530334 -10.950259
									CHANNELS 3 Xrotation Yrotation Zrotation
									JOINT RightHandPinky2
									{
										OFFSET -5.254700 0.000000 0.000000
										CHANNELS 3 Xrotation Yrotation Zrotation
										JOINT RightHandPinky3
										{
											OFFSET -4.810204 0.000000 0.000000
											CHANNELS 3 Xrotation Yrotation Zrotation
											JOINT RightHandPinky4
											{
												OFFSET -3.647202 0.000000 0.000000
												CHANNELS 3 Xrotation Yrotation Zrotation
												End Site
												{
													OFFSET 0.000000 3.647186 0.011917
												}
											}
										}
									}
								}
							}
						}
					}
				}
			}
		}
	}
	JOINT LeftUpLeg
	{
		OFFSET 15.427100 -6.655098 0.678600
		CHANNELS 3 Xrotation Yrotation Zrotation
		JOINT LeftLeg
		{
			OFFSET 4.081073 -39.591068 13.024000
			CHANNELS 3 Xrotation Yrotation Zrotation
			JOINT LeftFoot
			{
				OFFSET -4.081074 -37.707932 -15.979700
				CHANNELS 3 Xrotation Yrotation Zrotation
				JOINT LeftToeBase
				{
					OFFSET 5.346399 -15.068900 20.645000
					CHANNELS 3 Xrotation Yrotation Zrotation
					JOINT LeftToe_End
					{
						OFFSET 2.754700 0.931300 11.300900
						CHANNELS 3 Xrotation Yrotation Zrotation
						End Site
						{
							OFFSET 0.000000 11.669021 0.000000
						}
					}
				}
			}
		}
	}
	JOINT RightUpLeg
	{
		OFFSET -15.569500 -6.655098 0.678600
		CHANNELS 3 Xrotation Yrotation Zrotation
		JOINT RightLeg
		{
			OFFSET -4.081825 -39.591045 13.023800
			CHANNELS 3 Xrotation Yrotation Zrotation
			JOINT RightFoot
			{
				OFFSET 4.081824 -37.707954 -15.979600
				CHANNELS 3 Xrotation Yrotation Zrotation
				JOINT RightToeBase
				{
					OFFSET -5.346400 -15.068900 20.645000
					CHANNELS 3 Xrotation Yrotation Zrotation
					JOINT RightToe_End
					{
						OFFSET -2.754700 0.931300 11.300900
						CHANNELS 3 Xrotation Yrotation Zrotation
						End Site
						{
							OFFSET 0.000000 11.669021 0.000000
						}
					}
				}
			}
		}
	}
}
MOTION
Frames: 4
Frame Time: 0.033333
-1.773459 96.848618 2.426454 -180.734920 -173.541952 -182.274253 -7.008716 2.471971 3.886178 -0.217856 0.348261 -1.217349 -0.210139 0.364541 -1.213839 7.263268 -1.277238 0.709333 18.380842 -5.203497 -0.798037 0.000000 -0.000000 0.000000 0.573835 -3.265973 -0.050833 -82.567008 21.615920 -0.683255 0.000001 -104.816295 0.000001 23.897169 21.460658 14.567562 8.212432 6.841155 9.344177 4.722086 17.608615 1.458211 -0.579460 1.575002 2.538701 0.000002 0.000001 -0.000000 0.066027 0.953192 -7.924497 -0.000010 0.000014 -0.000095 0.014254 0.443760 -3.679811 0.000001 -0.000001 0.000001 0.065335 0.948261 -7.883127 0.000012 0.011416 -0.094672 0.029287 0.635755 -5.275718 0.000001 0.000001 -0.000000 0.066159 0.954184 -7.932653 -0.000005 0.008715 -0.072180 0.057126 0.886776 -7.369062 0.000002 -0.000001 -0.000000 0.616350 4.980784 -7.530391 -0.018120 -4.056682 -0.491057 0.087702 1.097717 -9.135897 0.000000 -0.000002 0.000001 1.259164 18.169770 4.579974 -87.658047 -20.543628 -3.287227 0.000036 106.198793 -0.000029 -1.818085 -14.068754 -32.384174 -1.430305 -15.085420 -5.624860 5.584674 -19.311889 -0.939275 -1.273755 0.137311 -2.094871 -0.000005 -0.000001 0.000000 0.000956 -0.115289 0.946107 0.052781 -0.856977 7.050190 0.003675 -0.226539 1.859233 0.000001 -0.000002 -0.000000 0.005105 -0.266914 2.190734 0.085915 -1.091925 8.997920 0.025608 -0.597494 4.909119 -0.000002 0.000000 0.000000 0.014937 -0.456432 3.748045 0.138690 -1.384544 11.439160 0.080220 -1.055381 8.694435 0.000001 -0.000001 -0.000001 0.026577 -0.608558 5.000119 0.189730 -1.616446 13.389035 0.145181 -1.416246 11.704852 -0.000001 0.000002 0.000000 -6.103130 -0.542225 4.101208 14.599183 -2.033133 -2.043713 -9.789974 8.841622 0.653682 -0.000007 0.000000 0.000001 -0.000000 0.000000 0.000000 -2.468295 -8.195353 -3.951748 10.247178 -4.626844 -1.500648 -5.226666 -4.180537 7.673548 -1.328772 -0.000004 -0.000001 -0.000000 -0.000001 -0.000000 
-1.152220 96.438667 2.635582 -181.012089 -173.190320 -182.099387 -6.778673 2.373313 3.227449 -0.330574 0.332678 -0.806762 -0.325066 0.344278 -0.804078 7.498352 -1.154258 0.367351 18.208914 -5.008293 -1.091926 -0.000003 0.000001 -0.000000 0.474938 -2.105576 -0.048550 -83.456832 19.860191 -0.020615 -0.000075 -102.335468 -0.000061 23.449127 21.523920 1.574225 8.212430 6.841153 9.344179 4.722089 17.608617 1.458213 -0.579460 1.574999 2.538706 -0.000002 -0.000002 -0.000005 0.195617 1.632808 -13.662816 -0.000004 0.000015 -0.000092 0.033414 0.678834 -5.634423 0.000001 0.000001 0.000000 0.176827 1.553495 -12.986829 0.000028 0.018055 -0.149679 0.048613 0.818389 -6.797901 0.000000 -0.000002 0.000000 0.158441 1.471543 -12.290507 0.000022 0.014874 -0.123299 0.073182 1.003246 -8.343400 0.000002 -0.000001 0.000001 0.960304 5.385525 -11.336390 -0.018115 -4.056662 -0.491056 0.098576 1.163297 -9.686893 0.000001 -0.000002 0.000001 1.270486 17.821459 4.322730 -87.667896 -18.179240 -3.271605 0.000072 101.389309 -0.000075 -6.657493 -12.432193 -21.231006 -1.430308 -15.085422 -5.624861 5.584675 -19.311889 -0.939277 -1.273756 0.137312 -2.094869 0.000000 0.000003 -0.000000 0.029188 -0.637810 5.241090 0.076007 -1.027498 8.462993 0.009432 -0.362573 2.976540 -0.000001 -0.000002 -0.000000 0.035891 -0.707004 5.811734 0.104813 -1.205123 9.940099 0.033683 -0.685048 5.630628 0.000000 0.000000 0.000000 0.045346 -0.794387 6.533137 0.146876 -1.424458 11.773546 0.084785 -1.084711 8.938002 0.000000 0.000001 -0.000000 0.053822 -0.865273 7.119093 0.185239 -1.597394 13.228283 0.141990 -1.400784 11.575170 0.000000 -0.000000 -0.000001 -6.164238 -2.639040 3.323506 15.051374 -1.555866 -2.503564 -8.822079 8.033949 1.169476 -0.000005 0.000002 -0.000000 0.000000 0.000000 -0.000000 -3.520364 -7.529495 -4.401074 12.470362 -4.538489 -1.951602 -5.914282 -4.165556 7.367609 -1.635534 0.000002 -0.000003 -0.000000 -0.000000 0.000000 
-0.543359 95.561401 2.836081 -181.517427 -173.061325 -181.720489 -6.375317 2.178732 2.284621 -0.411070 0.299177 -0.440225 -0.407794 0.306342 -0.438467 7.695943 -1.055848 0.076211 18.286602 -4.827584 -1.531145 0.000001 0.000000 0.000000 0.408620 -1.327652 -0.027444 -82.742483 18.094529 0.549495 0.000340 -97.711020 0.000343 16.064171 14.804802 -4.296734 8.212428 6.841155 9.344179 4.722087 17.608615 1.458216 -0.579461 1.574996 2.538704 0.000001 0.000000 -0.000002 0.410197 2.345283 -19.838645 0.002289 0.178037 -1.475543 0.077669 1.033413 -8.596419 0.000001 -0.000001 0.000001 0.376112 2.248669 -18.988498 0.003321 0.214028 -1.773766 0.090987 1.117876 -9.305151 0.000001 0.000001 0.000004 0.342990 2.150085 -18.125580 0.003146 0.208612 -1.728873 0.115223 1.256902 -10.475094 0.000000 -0.000001 0.000003 1.531423 5.953200 -17.112653 -0.014381 -3.881305 -1.944304 0.142200 1.394925 -11.641005 -0.000001 0.000003 -0.000000 1.283275 17.629746 4.125747 -86.515848 -15.777418 -3.278444 -0.000109 96.099853 0.000092 -10.814334 -8.187018 -10.272057 -1.430309 -15.085414 -5.624860 5.584671 -19.311890 -0.939276 -1.273757 0.137309 -2.094868 -0.000002 0.000001 0.000000 0.126378 -1.322309 10.918322 0.135961 -1.371065 11.326300 0.029075 -0.636458 5.229898 0.000002 0.000000 -0.000000 0.129604 -1.338899 11.057102 0.162190 -1.496091 12.375094 0.060049 -0.913731 7.519884 0.000003 -0.000002 -0.000000 0.134086 -1.361648 11.247448 0.197143 -1.647224 13.648961 0.114495 -1.259142 10.390665 -0.000001 -0.000001 -0.000001 0.138062 -1.381521 11.413828 0.226653 -1.764287 14.640372 0.170593 -1.533755 12.691972 0.000002 -0.000001 -0.000001 -6.522695 -2.863566 2.648774 16.484959 -2.558976 -3.591531 -8.812792 8.413452 2.466261 -0.000066 -0.000001 0.000004 -0.000000 0.000000 0.000000 -4.998214 -5.542263 -4.717022 16.264718 -3.136066 -2.321503 -6.589414 -7.851246 7.634652 -1.991107 -0.000002 0.000002 -0.000000 0.000002 0.000000 
0.043307 94.386032 3.015426 -182.264008 -173.175253 -181.235969 -5.606406 1.959889 1.294755 -0.469833 0.259466 -0.237416 -0.468149 0.263524 -0.236472 7.818192 -1.048454 -0.039448 18.377462 -4.872549 -1.899849 -0.000000 -0.000000 -0.000000 0.402841 -1.270357 0.017623 -79.915023 15.785884 1.102173 0.013768 -91.712850 0.013793 5.484385 3.899164 -8.544232 8.212430 6.841157 9.344177 4.722089 17.608615 1.458216 -0.579458 1.574997 2.538703 -0.000000 -0.000002 0.000000 0.668300 2.963987 -25.407216 0.062773 0.929439 -7.725776 0.145690 1.411723 -11.783360 -0.000001 0.000001 0.000002 0.632568 2.887640 -24.706988 0.066897 0.959499 -7.977234 0.162309 1.489171 -12.440187 -0.000001 0.000000 0.000002 0.601249 2.818634 -24.077539 0.064120 0.939424 -7.809325 0.191634 1.616320 -13.522050 -0.000001 -0.000000 0.000002 2.207182 6.496521 -23.338731 0.046798 -3.169662 -7.861928 0.223350 1.742849 -14.603894 0.000002 -0.000002 -0.000000 1.292708 17.489399 4.005262 -84.236504 -14.035266 -3.537000 0.023130 90.700691 -0.023164 -14.353041 -1.542194 -0.621194 -1.430309 -15.085422 -5.624861 5.584670 -19.311883 -0.939279 -1.273754 0.137316 -2.094869 -0.000003 0.000004 0.000001 0.297197 -2.014906 16.779094 0.241411 -1.819804 15.112255 0.071287 -0.995089 8.194132 0.000002 0.000002 -0.000002 0.299864 -2.023730 16.854960 0.266945 -1.911804 15.896423 0.111479 -1.242567 10.252225 -0.000000 0.000000 -0.000001 0.304136 -2.037803 16.975732 0.298474 -2.019171 16.815832 0.174832 -1.552418 12.849056 0.000001 -0.000002 0.000000 0.308341 -2.051495 17.093498 0.323217 -2.099262 17.504347 0.236172 -1.800262 14.946033 0.000001 -0.000000 0.000000 -7.044856 -2.652079 1.666156 18.928565 -4.377038 -4.524074 -10.360220 9.434778 4.141178 -0.000058 -0.000000 -0.000004 -0.000000 -0.000000 0.000000 -6.707853 -2.814100 -5.049068 21.382005 -3.221044 -2.825802 -7.560470 -11.058276 7.898544 -2.803767 -0.000007 -0.000001 -0.000000 0.000000 -0.000000 
